<svg width="66" height="54" viewBox="0 0 66 54" fill="none" xmlns="http://www.w3.org/2000/svg">
<path opacity="0.75" d="M0.309814 53.2173C14.8622 53.2173 26.6758 41.3976 26.6758 26.8376C26.6758 12.2775 14.8622 0.457764 0.309814 0.457764V13.1773V53.2173Z" fill="#536DFE"/>
<path opacity="0.75" d="M13.2681 53.2173C27.8205 53.2173 39.6341 41.3976 39.6341 26.8376C39.6341 12.2775 27.8205 0.457764 13.2681 0.457764V13.1773V53.2173Z" fill="#3F51B5"/>
<path opacity="0.75" d="M26.4714 53.2173C41.0238 53.2173 52.8374 41.3976 52.8374 26.8376C52.8374 12.2775 41.0238 0.457764 26.4714 0.457764V13.1773V53.2173Z" fill="#F44336"/>
<path opacity="0.75" d="M39.634 53.2173C54.1864 53.2173 66 41.3976 66 26.8376C66 12.2775 54.1864 0.457764 39.634 0.457764V13.1773V53.2173Z" fill="#FFA000"/>
</svg>
